<svg width="1076" height="823" viewBox="0 0 1076 823" fill="none" xmlns="http://www.w3.org/2000/svg">
<path fill-rule="evenodd" clip-rule="evenodd" d="M547 258.5C547 244.909 555.094 233.208 566.724 227.954C557.919 224.749 548.414 223 538.5 223C492.937 223 456 259.937 456 305.5C456 351.063 492.937 388 538.5 388C584.063 388 621 351.063 621 305.5C621 292.305 617.903 279.834 612.395 268.774C608.058 282.25 595.417 292 580.5 292C561.998 292 547 277.002 547 258.5Z" fill="white"/>
<path fill-rule="evenodd" clip-rule="evenodd" d="M538.5 505C648.681 505 738 415.681 738 305.5C738 195.319 648.681 106 538.5 106C428.319 106 339 195.319 339 305.5C339 415.681 428.319 505 538.5 505ZM679.752 305.5C679.752 383.511 616.511 446.752 538.5 446.752C460.489 446.752 397.248 383.511 397.248 305.5C397.248 227.489 460.489 164.248 538.5 164.248C616.511 164.248 679.752 227.489 679.752 305.5Z" fill="white"/>
<path fill-rule="evenodd" clip-rule="evenodd" d="M869.21 562.784L868.85 563.144C869.045 563.098 869.24 563.053 869.435 563.009C875.246 561.694 881.292 561 887.5 561C890.073 561 892.618 561.119 895.13 561.352L968.648 634.87L982.804 649.027L1071.97 738.196C1071.77 746.364 1070.44 754.252 1068.14 761.712C1060.37 786.857 1041.51 807.132 1017.27 816.818C1010.4 819.566 1003.09 821.462 995.477 822.376L898.624 725.523L896.599 723.498L806.502 633.401C806.863 630.156 807.414 626.969 808.144 623.85C809.131 619.634 810.445 615.543 812.059 611.607L756.026 555.574L737.637 537.185C685.536 582.007 618.149 609.556 544.362 610.945C542.327 610.98 540.293 610.998 538.26 611L538 611C273 611 0 324 0 305.5C0 287 237 0 538 0L538.276 8.06319e-05C539.079 0.000550586 539.881 0.00307258 540.683 0.00763598C840.407 1.71312 1076 288.551 1076 305.5C1076 313.183 1020.24 376.315 934.667 443.21C925.906 450.059 916.832 456.947 907.474 463.819C906.332 463.939 905.173 464 904 464C885.775 464 871 449.225 871 431C871 427.821 871.45 424.746 872.289 421.837C883.625 413.815 894.405 405.825 904.554 398.005C964.94 351.477 1003 310.964 1003 305.5C1003 296.72 917.698 197.455 787.276 128.144C822.988 178.147 844 239.37 844 305.5C844 366.415 826.171 423.167 795.447 470.821C793.077 474.496 790.631 478.118 788.11 481.683L825.036 518.61L869.21 562.784ZM540.028 61.0047C539.519 61.0016 539.01 61 538.5 61L538.285 61.0001C403.35 61.1162 294 170.538 294 305.5C294 440.457 403.342 549.875 538.269 550L538.5 550C539.479 550 540.456 549.994 541.433 549.983C675.115 548.412 783 439.555 783 305.5C783 170.976 674.358 61.8267 540.028 61.0047ZM73 305.5C73 295.898 159.152 195.919 290.672 126.824C254.384 177.068 233 238.787 233 305.5C233 367.021 251.185 424.296 282.473 472.24C161.384 404.115 73 314.562 73 305.5Z" fill="white"/>
</svg>
