<svg width="1654" height="1127" viewBox="0 0 1654 1127" fill="none" xmlns="http://www.w3.org/2000/svg">
<path fill-rule="evenodd" clip-rule="evenodd" d="M836 258.5C836 244.909 844.094 233.208 855.724 227.954C846.919 224.749 837.414 223 827.5 223C781.937 223 745 259.937 745 305.5C745 351.063 781.937 388 827.5 388C873.063 388 910 351.063 910 305.5C910 292.305 906.903 279.834 901.395 268.774C897.058 282.25 884.417 292 869.5 292C850.998 292 836 277.002 836 258.5Z" fill="white"/>
<path fill-rule="evenodd" clip-rule="evenodd" d="M827.5 505C937.681 505 1027 415.681 1027 305.5C1027 195.319 937.681 106 827.5 106C717.319 106 628 195.319 628 305.5C628 415.681 717.319 505 827.5 505ZM968.752 305.5C968.752 383.511 905.511 446.752 827.5 446.752C749.489 446.752 686.248 383.511 686.248 305.5C686.248 227.489 749.489 164.248 827.5 164.248C905.511 164.248 968.752 227.489 968.752 305.5Z" fill="white"/>
<path fill-rule="evenodd" clip-rule="evenodd" d="M1158.21 562.784L1157.85 563.144C1158.04 563.098 1158.24 563.053 1158.44 563.009C1164.25 561.694 1170.29 561 1176.5 561C1179.07 561 1181.62 561.119 1184.13 561.352L1257.65 634.87L1271.8 649.027L1360.97 738.196C1360.77 746.364 1359.44 754.252 1357.14 761.712C1349.37 786.857 1330.51 807.132 1306.27 816.818C1299.4 819.566 1292.09 821.462 1284.48 822.376L1187.62 725.523L1185.6 723.498L1095.5 633.401C1095.86 630.156 1096.41 626.969 1097.14 623.85C1098.13 619.634 1099.45 615.543 1101.06 611.607L1045.03 555.574L1026.64 537.185C974.536 582.007 907.149 609.556 833.362 610.945C831.327 610.98 829.293 610.998 827.26 611L827 611C562 611 289 324 289 305.5C289 287 526 0 827 0L827.276 8.06319e-05C828.079 0.000550586 828.881 0.00307258 829.683 0.00763598C1129.41 1.71312 1365 288.551 1365 305.5C1365 313.183 1309.24 376.315 1223.67 443.21C1214.91 450.059 1205.83 456.947 1196.47 463.819C1195.33 463.939 1194.17 464 1193 464C1174.77 464 1160 449.225 1160 431C1160 427.821 1160.45 424.746 1161.29 421.837C1172.62 413.815 1183.4 405.825 1193.55 398.005C1253.94 351.477 1292 310.964 1292 305.5C1292 296.72 1206.7 197.455 1076.28 128.144C1111.99 178.147 1133 239.37 1133 305.5C1133 366.415 1115.17 423.167 1084.45 470.821C1082.08 474.496 1079.63 478.118 1077.11 481.683L1114.04 518.61L1158.21 562.784ZM829.028 61.0047C828.519 61.0016 828.01 61 827.5 61L827.285 61.0001C692.35 61.1162 583 170.538 583 305.5C583 440.457 692.342 549.875 827.269 550L827.5 550C828.479 550 829.456 549.994 830.433 549.983C964.115 548.412 1072 439.555 1072 305.5C1072 170.976 963.358 61.8267 829.028 61.0047ZM362 305.5C362 295.898 448.152 195.919 579.672 126.824C543.384 177.068 522 238.787 522 305.5C522 367.021 540.185 424.296 571.473 472.24C450.384 404.115 362 314.562 362 305.5Z" fill="white"/>
<path d="M136.768 964.672H96.3368V926.179C96.3368 922.2 95.8376 919.714 94.8393 918.719C93.841 917.525 91.7612 916.928 88.5999 916.928H48.1684C45.0071 916.928 42.9273 917.525 41.929 918.719C40.9306 919.714 40.4315 922.2 40.4315 926.179V1058.07C40.4315 1062.05 40.9306 1064.64 41.929 1065.83C42.9273 1066.82 45.0071 1067.32 48.1684 1067.32H88.5999C91.7612 1067.32 93.841 1066.82 94.8393 1065.83C95.8376 1064.64 96.3368 1062.05 96.3368 1058.07V1019.88H136.768V1061.35C136.768 1077.07 130.196 1084.93 117.052 1084.93H19.7166C6.5722 1084.93 0 1077.07 0 1061.35V922.896C0 907.181 6.5722 899.323 19.7166 899.323H117.052C130.196 899.323 136.768 907.181 136.768 922.896V964.672Z" fill="white"/>
<path d="M208.598 1084.93H169.913V940.203H208.598V1084.93ZM169.165 916.033V885H209.346V916.033H169.165Z" fill="white"/>
<path d="M337.243 1058.07V967.059C337.243 963.279 336.744 960.793 335.746 959.599C334.747 958.406 332.667 957.809 329.506 957.809H294.565C288.575 957.809 285.581 961.091 285.581 967.656V1057.77C285.581 1064.14 288.575 1067.32 294.565 1067.32H329.506C332.667 1067.32 334.747 1066.82 335.746 1065.83C336.744 1064.64 337.243 1062.05 337.243 1058.07ZM299.557 940.203H355.961C369.106 940.203 375.678 948.061 375.678 963.777V1061.35C375.678 1077.07 369.106 1084.93 355.961 1084.93H299.557C292.236 1084.93 287.577 1081.94 285.581 1075.97V1127H246.896V940.203H285.081V950.647C287.078 943.685 291.903 940.203 299.557 940.203Z" fill="white"/>
<path d="M463.835 940.203H518.742C531.886 940.203 538.459 948.061 538.459 963.777V1084.93H500.024V967.059C500.024 963.279 499.525 960.793 498.526 959.599C497.694 958.406 495.615 957.809 492.287 957.809H458.594C452.771 957.809 449.859 960.992 449.859 967.358V976.011H449.609V1084.93H410.925V885.298H449.609V950.051C451.606 943.486 456.348 940.203 463.835 940.203Z" fill="white"/>
<path d="M610.423 1001.97H664.331V967.059C664.331 963.279 663.832 960.793 662.834 959.599C662.002 958.406 659.922 957.809 656.594 957.809H618.16C614.832 957.809 612.669 958.406 611.671 959.599C610.839 960.793 610.423 963.279 610.423 967.059V1001.97ZM591.704 940.203H682.051C695.196 940.203 701.768 948.061 701.768 963.777V1019.58H610.423V1058.07C610.423 1062.05 610.839 1064.64 611.671 1065.83C612.669 1066.82 614.832 1067.32 618.16 1067.32H656.095C659.423 1067.32 661.503 1066.82 662.335 1065.83C663.333 1064.64 663.832 1062.05 663.832 1058.07V1040.46H701.269V1061.35C701.269 1077.07 694.697 1084.93 681.552 1084.93H591.704C578.56 1084.93 571.988 1077.07 571.988 1061.35V963.777C571.988 948.061 578.56 940.203 591.704 940.203Z" fill="white"/>
<path d="M798.725 939.905H817.693V959.599H791.487C779.674 959.599 773.767 967.159 773.767 982.277V1084.93H735.083V940.203H773.767V957.809C777.095 945.873 785.414 939.905 798.725 939.905Z" fill="white"/>
<path d="M1048.82 899.323H1088.01L1037.09 1084.93H988.674L956.479 949.454L924.533 1084.93H876.115L825.451 899.323H866.382L900.324 1051.21L936.263 899.323H976.695L1012.63 1051.21L1048.82 899.323Z" fill="white"/>
<path d="M1156.55 1067.32H1190.25C1196.24 1067.32 1199.23 1064.14 1199.23 1057.77V967.358C1199.23 960.992 1196.24 957.809 1190.25 957.809H1156.55C1153.23 957.809 1151.06 958.406 1150.06 959.599C1149.23 960.793 1148.82 963.279 1148.82 967.059V1058.07C1148.82 1062.05 1149.23 1064.64 1150.06 1065.83C1151.06 1066.82 1153.23 1067.32 1156.55 1067.32ZM1199.23 940.203H1237.67V1084.93H1199.23V1075.08C1197.23 1081.64 1192.49 1084.93 1185.01 1084.93H1130.1C1116.95 1084.93 1110.38 1077.07 1110.38 1061.35V963.777C1110.38 948.061 1116.95 940.203 1130.1 940.203H1185.01C1192.49 940.203 1197.23 943.486 1199.23 950.051V940.203Z" fill="white"/>
<path d="M1347.07 957.809H1320.37V1057.18C1320.37 1060.95 1320.78 1063.44 1321.62 1064.64C1322.61 1065.83 1324.78 1066.43 1328.11 1066.43H1346.82V1084.93H1301.4C1288.26 1084.93 1281.68 1077.07 1281.68 1061.35V957.809H1262.22V940.203H1281.68V909.469H1320.37V940.203H1347.07V957.809Z" fill="white"/>
<path d="M1495.71 990.633H1458.02V967.059C1458.02 963.279 1457.52 960.793 1456.53 959.599C1455.69 958.406 1453.61 957.809 1450.29 957.809H1417.34C1414.01 957.809 1411.85 958.406 1410.85 959.599C1410.02 960.793 1409.61 963.279 1409.61 967.059V1058.07C1409.61 1062.05 1410.02 1064.64 1410.85 1065.83C1411.85 1066.82 1414.01 1067.32 1417.34 1067.32H1450.29C1453.61 1067.32 1455.69 1066.82 1456.53 1065.83C1457.52 1064.64 1458.02 1062.05 1458.02 1058.07V1035.09H1495.71V1061.35C1495.71 1077.07 1489.14 1084.93 1475.99 1084.93H1390.89C1377.74 1084.93 1371.17 1077.07 1371.17 1061.35V963.777C1371.17 948.061 1377.74 940.203 1390.89 940.203H1475.99C1489.14 940.203 1495.71 948.061 1495.71 963.777V990.633Z" fill="white"/>
<path d="M1579.38 940.203H1634.28C1647.43 940.203 1654 948.061 1654 963.777V1084.93H1615.57V967.059C1615.57 963.279 1615.07 960.793 1614.07 959.599C1613.24 958.406 1611.16 957.809 1607.83 957.809H1574.14C1568.31 957.809 1565.4 960.992 1565.4 967.358V976.011H1565.15V1084.93H1526.47V885.298H1565.15V950.051C1567.15 943.486 1571.89 940.203 1579.38 940.203Z" fill="white"/>
</svg>
